<svg width="175" height="39" viewBox="0 0 175 39" fill="none" xmlns="http://www.w3.org/2000/svg">
<path d="M12.208 31L7.728 23.216H5.292V31H2.1V11.54H8.82C10.3133 11.54 11.5733 11.8013 12.6 12.324C13.6453 12.8467 14.42 13.5467 14.924 14.424C15.4467 15.3013 15.708 16.2813 15.708 17.364C15.708 18.6333 15.3347 19.7907 14.588 20.836C13.86 21.8627 12.7307 22.5627 11.2 22.936L16.016 31H12.208ZM5.292 20.668H8.82C10.0147 20.668 10.9107 20.3693 11.508 19.772C12.124 19.1747 12.432 18.372 12.432 17.364C12.432 16.356 12.1333 15.572 11.536 15.012C10.9387 14.4333 10.0333 14.144 8.82 14.144H5.292V20.668ZM18.7274 23.216C18.7274 21.6667 19.0447 20.2947 19.6794 19.1C20.3327 17.9053 21.2101 16.9813 22.3114 16.328C23.4314 15.656 24.6634 15.32 26.0074 15.32C27.2207 15.32 28.2754 15.5627 29.1714 16.048C30.0861 16.5147 30.8141 17.1027 31.3554 17.812V15.572H34.5754V31H31.3554V28.704C30.8141 29.432 30.0767 30.0387 29.1434 30.524C28.2101 31.0093 27.1461 31.252 25.9514 31.252C24.6261 31.252 23.4127 30.916 22.3114 30.244C21.2101 29.5533 20.3327 28.6013 19.6794 27.388C19.0447 26.156 18.7274 24.7653 18.7274 23.216ZM31.3554 23.272C31.3554 22.208 31.1314 21.284 30.6834 20.5C30.2541 19.716 29.6847 19.1187 28.9754 18.708C28.2661 18.2973 27.5007 18.092 26.6794 18.092C25.8581 18.092 25.0927 18.2973 24.3834 18.708C23.6741 19.1 23.0954 19.688 22.6474 20.472C22.2181 21.2373 22.0034 22.152 22.0034 23.216C22.0034 24.28 22.2181 25.2133 22.6474 26.016C23.0954 26.8187 23.6741 27.4347 24.3834 27.864C25.1114 28.2747 25.8767 28.48 26.6794 28.48C27.5007 28.48 28.2661 28.2747 28.9754 27.864C29.6847 27.4533 30.2541 26.856 30.6834 26.072C31.1314 25.2693 31.3554 24.336 31.3554 23.272ZM44.872 23.3L51.984 31H47.672L41.96 24.364V31H38.768V10.28H41.96V22.32L47.56 15.572H51.984L44.872 23.3ZM53.2079 23.216C53.2079 21.6667 53.5252 20.2947 54.1599 19.1C54.8132 17.9053 55.6905 16.9813 56.7919 16.328C57.9119 15.656 59.1439 15.32 60.4879 15.32C61.7012 15.32 62.7559 15.5627 63.6519 16.048C64.5665 16.5147 65.2945 17.1027 65.8359 17.812V15.572H69.0559V31H65.8359V28.704C65.2945 29.432 64.5572 30.0387 63.6239 30.524C62.6905 31.0093 61.6265 31.252 60.4319 31.252C59.1065 31.252 57.8932 30.916 56.7919 30.244C55.6905 29.5533 54.8132 28.6013 54.1599 27.388C53.5252 26.156 53.2079 24.7653 53.2079 23.216ZM65.8359 23.272C65.8359 22.208 65.6119 21.284 65.1639 20.5C64.7345 19.716 64.1652 19.1187 63.4559 18.708C62.7465 18.2973 61.9812 18.092 61.1599 18.092C60.3385 18.092 59.5732 18.2973 58.8639 18.708C58.1545 19.1 57.5759 19.688 57.1279 20.472C56.6985 21.2373 56.4839 22.152 56.4839 23.216C56.4839 24.28 56.6985 25.2133 57.1279 26.016C57.5759 26.8187 58.1545 27.4347 58.8639 27.864C59.5919 28.2747 60.3572 28.48 61.1599 28.48C61.9812 28.48 62.7465 28.2747 63.4559 27.864C64.1652 27.4533 64.7345 26.856 65.1639 26.072C65.6119 25.2693 65.8359 24.336 65.8359 23.272ZM76.4404 17.84C76.9818 17.1307 77.7191 16.5333 78.6524 16.048C79.5858 15.5627 80.6404 15.32 81.8164 15.32C83.1604 15.32 84.3831 15.656 85.4844 16.328C86.6044 16.9813 87.4818 17.9053 88.1164 19.1C88.7511 20.2947 89.0684 21.6667 89.0684 23.216C89.0684 24.7653 88.7511 26.156 88.1164 27.388C87.4818 28.6013 86.6044 29.5533 85.4844 30.244C84.3831 30.916 83.1604 31.252 81.8164 31.252C80.6404 31.252 79.5951 31.0187 78.6804 30.552C77.7658 30.0667 77.0191 29.4693 76.4404 28.76V38.336H73.2484V15.572H76.4404V17.84ZM85.8204 23.216C85.8204 22.152 85.5964 21.2373 85.1484 20.472C84.7191 19.688 84.1404 19.1 83.4124 18.708C82.7031 18.2973 81.9378 18.092 81.1164 18.092C80.3138 18.092 79.5484 18.2973 78.8204 18.708C78.1111 19.1187 77.5324 19.716 77.0844 20.5C76.6551 21.284 76.4404 22.208 76.4404 23.272C76.4404 24.336 76.6551 25.2693 77.0844 26.072C77.5324 26.856 78.1111 27.4533 78.8204 27.864C79.5484 28.2747 80.3138 28.48 81.1164 28.48C81.9378 28.48 82.7031 28.2747 83.4124 27.864C84.1404 27.4347 84.7191 26.8187 85.1484 26.016C85.5964 25.2133 85.8204 24.28 85.8204 23.216ZM106.365 22.908C106.365 23.4867 106.328 24.0093 106.253 24.476H94.465C94.5583 25.708 95.0157 26.6973 95.837 27.444C96.6583 28.1907 97.6663 28.564 98.861 28.564C100.578 28.564 101.792 27.8453 102.501 26.408H105.945C105.478 27.8267 104.629 28.9933 103.397 29.908C102.184 30.804 100.672 31.252 98.861 31.252C97.3863 31.252 96.061 30.9253 94.885 30.272C93.7277 29.6 92.813 28.6667 92.141 27.472C91.4877 26.2587 91.161 24.8587 91.161 23.272C91.161 21.6853 91.4783 20.2947 92.113 19.1C92.7663 17.8867 93.6717 16.9533 94.829 16.3C96.005 15.6467 97.349 15.32 98.861 15.32C100.317 15.32 101.614 15.6373 102.753 16.272C103.892 16.9067 104.778 17.8027 105.413 18.96C106.048 20.0987 106.365 21.4147 106.365 22.908ZM103.033 21.9C103.014 20.724 102.594 19.7813 101.773 19.072C100.952 18.3627 99.9343 18.008 98.721 18.008C97.6197 18.008 96.677 18.3627 95.893 19.072C95.109 19.7627 94.6423 20.7053 94.493 21.9H103.033ZM108.442 23.216C108.442 21.6667 108.76 20.2947 109.394 19.1C110.048 17.9053 110.925 16.9813 112.026 16.328C113.146 15.656 114.388 15.32 115.75 15.32C116.758 15.32 117.748 15.544 118.718 15.992C119.708 16.4213 120.492 17 121.07 17.728V10.28H124.29V31H121.07V28.676C120.548 29.4227 119.82 30.0387 118.886 30.524C117.972 31.0093 116.917 31.252 115.722 31.252C114.378 31.252 113.146 30.916 112.026 30.244C110.925 29.5533 110.048 28.6013 109.394 27.388C108.76 26.156 108.442 24.7653 108.442 23.216ZM121.07 23.272C121.07 22.208 120.846 21.284 120.398 20.5C119.969 19.716 119.4 19.1187 118.69 18.708C117.981 18.2973 117.216 18.092 116.394 18.092C115.573 18.092 114.808 18.2973 114.098 18.708C113.389 19.1 112.81 19.688 112.362 20.472C111.933 21.2373 111.718 22.152 111.718 23.216C111.718 24.28 111.933 25.2133 112.362 26.016C112.81 26.8187 113.389 27.4347 114.098 27.864C114.826 28.2747 115.592 28.48 116.394 28.48C117.216 28.48 117.981 28.2747 118.69 27.864C119.4 27.4533 119.969 26.856 120.398 26.072C120.846 25.2693 121.07 24.336 121.07 23.272ZM130.107 13.528C129.528 13.528 129.043 13.332 128.651 12.94C128.259 12.548 128.063 12.0627 128.063 11.484C128.063 10.9053 128.259 10.42 128.651 10.028C129.043 9.636 129.528 9.44 130.107 9.44C130.667 9.44 131.143 9.636 131.535 10.028C131.927 10.42 132.123 10.9053 132.123 11.484C132.123 12.0627 131.927 12.548 131.535 12.94C131.143 13.332 130.667 13.528 130.107 13.528ZM131.675 15.572V31H128.483V15.572H131.675ZM134.802 23.216C134.802 21.6667 135.119 20.2947 135.754 19.1C136.407 17.9053 137.284 16.9813 138.386 16.328C139.506 15.656 140.738 15.32 142.082 15.32C143.295 15.32 144.35 15.5627 145.246 16.048C146.16 16.5147 146.888 17.1027 147.43 17.812V15.572H150.65V31H147.43V28.704C146.888 29.432 146.151 30.0387 145.218 30.524C144.284 31.0093 143.22 31.252 142.026 31.252C140.7 31.252 139.487 30.916 138.386 30.244C137.284 29.5533 136.407 28.6013 135.754 27.388C135.119 26.156 134.802 24.7653 134.802 23.216ZM147.43 23.272C147.43 22.208 147.206 21.284 146.758 20.5C146.328 19.716 145.759 19.1187 145.05 18.708C144.34 18.2973 143.575 18.092 142.754 18.092C141.932 18.092 141.167 18.2973 140.458 18.708C139.748 19.1 139.17 19.688 138.722 20.472C138.292 21.2373 138.078 22.152 138.078 23.216C138.078 24.28 138.292 25.2133 138.722 26.016C139.17 26.8187 139.748 27.4347 140.458 27.864C141.186 28.2747 141.951 28.48 142.754 28.48C143.575 28.48 144.34 28.2747 145.05 27.864C145.759 27.4533 146.328 26.856 146.758 26.072C147.206 25.2693 147.43 24.336 147.43 23.272Z" fill="#BE0909"/>
</svg>
